<?xml version="1.0" encoding="UTF-8"?>
<svg xmlns="http://www.w3.org/2000/svg" xmlns:xlink="http://www.w3.org/1999/xlink" width="3214" height="1607" viewBox="0 0 3214 1607">
<defs>
<clipPath id="clip-0">
<path clip-rule="nonzero" d="M 0.375 0.0507812 L 3090 0.0507812 L 3090 1606.71875 L 0.375 1606.71875 Z M 0.375 0.0507812 "/>
</clipPath>
<clipPath id="clip-1">
<path clip-rule="nonzero" d="M 0.375 0.0507812 L 1825 0.0507812 L 1825 379 L 0.375 379 Z M 0.375 0.0507812 "/>
</clipPath>
<clipPath id="clip-2">
<path clip-rule="nonzero" d="M 408 910 L 2805 910 L 2805 1606.71875 L 408 1606.71875 Z M 408 910 "/>
</clipPath>
<clipPath id="clip-3">
<path clip-rule="nonzero" d="M 0.375 297 L 1359 297 L 1359 935 L 0.375 935 Z M 0.375 297 "/>
</clipPath>
<clipPath id="clip-4">
<path clip-rule="nonzero" d="M 2635 460 L 3213.71875 460 L 3213.71875 1391 L 2635 1391 Z M 2635 460 "/>
</clipPath>
<clipPath id="clip-5">
<path clip-rule="nonzero" d="M 1776 1344 L 3160 1344 L 3160 1606.71875 L 1776 1606.71875 Z M 1776 1344 "/>
</clipPath>
<clipPath id="clip-6">
<path clip-rule="nonzero" d="M 910 0.0507812 L 2169 0.0507812 L 2169 252 L 910 252 Z M 910 0.0507812 "/>
</clipPath>
<clipPath id="clip-7">
<path clip-rule="nonzero" d="M 2011 0.0507812 L 3213.71875 0.0507812 L 3213.71875 267 L 2011 267 Z M 2011 0.0507812 "/>
</clipPath>
<clipPath id="clip-8">
<path clip-rule="nonzero" d="M 369 1513 L 1765 1513 L 1765 1606.71875 L 369 1606.71875 Z M 369 1513 "/>
</clipPath>
<clipPath id="clip-9">
<path clip-rule="nonzero" d="M 2166 1544 L 3213.71875 1544 L 3213.71875 1606.71875 L 2166 1606.71875 Z M 2166 1544 "/>
</clipPath>
<clipPath id="clip-10">
<path clip-rule="nonzero" d="M 0.375 819 L 964 819 L 964 1259 L 0.375 1259 Z M 0.375 819 "/>
</clipPath>
<clipPath id="clip-11">
<path clip-rule="nonzero" d="M 0.375 498 L 503 498 L 503 1294 L 0.375 1294 Z M 0.375 498 "/>
</clipPath>
<clipPath id="clip-12">
<path clip-rule="nonzero" d="M 0.375 1312 L 573 1312 L 573 1606.71875 L 0.375 1606.71875 Z M 0.375 1312 "/>
</clipPath>
<clipPath id="clip-13">
<path clip-rule="nonzero" d="M 0.375 38 L 287 38 L 287 345 L 0.375 345 Z M 0.375 38 "/>
</clipPath>
<clipPath id="clip-14">
<path clip-rule="nonzero" d="M 2877 1297 L 3213.71875 1297 L 3213.71875 1606.71875 L 2877 1606.71875 Z M 2877 1297 "/>
</clipPath>
<clipPath id="clip-15">
<path clip-rule="nonzero" d="M 2808 123 L 3213.71875 123 L 3213.71875 489 L 2808 489 Z M 2808 123 "/>
</clipPath>
<clipPath id="clip-16">
<path clip-rule="nonzero" d="M 2578 139 L 3213.71875 139 L 3213.71875 489 L 2578 489 Z M 2578 139 "/>
</clipPath>
<clipPath id="clip-17">
<path clip-rule="nonzero" d="M 2797 870 L 3213.71875 870 L 3213.71875 1145 L 2797 1145 Z M 2797 870 "/>
</clipPath>
<clipPath id="clip-18">
<path clip-rule="nonzero" d="M 3060 0.0507812 L 3213.71875 0.0507812 L 3213.71875 317 L 3060 317 Z M 3060 0.0507812 "/>
</clipPath>
<clipPath id="clip-19">
<path clip-rule="nonzero" d="M 2992 954 L 3213.71875 954 L 3213.71875 1211 L 2992 1211 Z M 2992 954 "/>
</clipPath>
<clipPath id="clip-20">
<path clip-rule="nonzero" d="M 0.375 359 L 173 359 L 173 513 L 0.375 513 Z M 0.375 359 "/>
</clipPath>
</defs>
<path fill-rule="evenodd" fill="rgb(100%, 100%, 100%)" fill-opacity="1" d="M 0.375 0.0507812 L 3213.71875 0.0507812 L 3213.71875 1606.71875 L 0.375 1606.71875 L 0.375 0.0507812 "/>
<g clip-path="url(#clip-0)">
<path fill-rule="evenodd" fill="rgb(54.492188%, 59.179688%, 59.179688%)" fill-opacity="1" d="M 2163.050781 -66.179688 C 2014.648438 26.589844 1808.640625 -60.5 1621.019531 2.738281 C 1610.671875 39.441406 1611.28125 63.101562 1620.191406 101.25 C 1736.609375 134.351562 1794.128906 65.960938 1888.800781 89.601562 C 1882.660156 132.140625 1823.75 176.570312 1777.21875 195.320312 C 1716.519531 219.808594 1658.808594 225.300781 1589.058594 211.371094 C 1320.820312 157.800781 1275.050781 231.101562 1191.75 211.179688 L 1205.109375 231.878906 C 1210.851562 241.179688 1224.359375 260.050781 1221.851562 279.398438 C 1213.769531 341.621094 1103.589844 358.210938 1059.578125 378.660156 C 1080.691406 436.75 1085.738281 460.03125 1017.210938 478.71875 C 970.589844 491.429688 914.910156 491.351562 864.542969 490.148438 C 663.046875 485.371094 699.160156 610.300781 756.523438 637.90625 C 890.332031 702.324219 1267.28125 608.046875 1358.148438 696.355469 C 1335.351562 841.503906 920.183594 719.847656 799.558594 819.984375 C 1008.871094 830.96875 983.390625 951.757812 908.96875 980.5 C 807.527344 1019.671875 661.617188 983.214844 554.757812 993.707031 C 372.398438 1011.621094 402.769531 1017.679688 335.195312 1149.222656 C 298.039062 1221.566406 196.324219 1299.308594 89.265625 1234.167969 C 93.464844 1161.769531 145.386719 1196.863281 142.511719 1117.722656 L 85.808594 1111.050781 C 72.402344 1123.359375 -39.8125 1175.011719 -75.84375 1197.40625 C -121.855469 1226.003906 -181.578125 1268.644531 -231.632812 1293.984375 L -231.632812 1775.824219 C -175.460938 1786.921875 -93.4375 1810.644531 -40.085938 1831.847656 C -2.800781 1846.675781 101.574219 1899.714844 109.539062 1913.515625 C 142.160156 1939.449219 235.84375 1933.613281 282.816406 1934.554688 C 342.234375 1895.023438 593.585938 1925.941406 678.644531 1935.535156 C 947.308594 1965.824219 1058.261719 2098.160156 1190.808594 2058.246094 C 1252.691406 2039.597656 1276.179688 1995.675781 1333.160156 1978.949219 C 1393.96875 1961.09375 1471.878906 1977.414062 1535.71875 1975.292969 C 1606.488281 1972.945312 1681.921875 1929.960938 1685.191406 2017.390625 C 1620.441406 2066.035156 1556.070312 2047.699219 1476.621094 2061.105469 C 1409.320312 2072.464844 1321.171875 2119 1376.398438 2191.878906 C 1446.441406 2284.296875 1712.761719 2205.503906 1752.929688 2340.460938 C 1806.601562 2325.839844 1826.398438 2281.835938 1785.859375 2242.773438 C 1749.199219 2207.464844 1712 2223.074219 1686.089844 2164.710938 C 1722.988281 2002.773438 1997.679688 2176.351562 2071.25 2204.40625 C 2195.890625 2251.941406 2309.871094 2233.847656 2421.539062 2269.421875 C 2472.160156 2285.539062 2487.578125 2290.21875 2474.460938 2344.886719 C 2546.371094 2373.691406 2727.980469 2355.828125 2809.128906 2332.703125 C 2996.980469 2279.171875 2978.28125 2202.140625 3047.148438 2199.582031 C 3008.960938 2179.242188 2995.980469 2193.285156 2878.398438 2122.300781 C 2851.878906 2106.292969 2828.261719 2090.121094 2801.628906 2074.949219 C 2744.269531 2042.292969 2729.199219 2053.882812 2711.328125 2033.90625 C 2676.128906 2063.539062 2630.199219 2069.480469 2569.078125 2069.019531 C 2607.261719 2135.246094 2714.558594 2113.59375 2721.53125 2191.230469 C 2685.429688 2252.789062 2522.511719 2266.066406 2459.929688 2213.425781 C 2320.910156 2096.480469 2380.589844 1887.914062 2042.789062 1955.152344 C 1947.808594 1974.0625 1805.488281 1991.351562 1776.691406 1899.515625 C 1800.910156 1753.878906 2185.390625 1806.96875 2261.53125 1669.683594 C 2269.410156 1620.882812 2244.148438 1582.792969 2219.488281 1560.984375 C 2173.359375 1520.191406 2053.320312 1527.75 1972.039062 1508.269531 C 1909.03125 1493.160156 1904.660156 1484.609375 1913.210938 1419.417969 C 1740.820312 1481.058594 1734.410156 1571.945312 1620.828125 1656.921875 C 1618.648438 1658.550781 1612.238281 1663.460938 1610.148438 1665.191406 C 1602.160156 1671.855469 1600.421875 1673.878906 1594.191406 1680.058594 C 1630.769531 1681.042969 1654.179688 1685.460938 1687.839844 1694.929688 L 1746.191406 1717.199219 C 1813.671875 1765.320312 1673.390625 1817.398438 1637.351562 1832.933594 C 1561.238281 1865.738281 1511.5 1860.488281 1429.949219 1857.667969 C 1238.089844 1851.058594 1237.980469 2012.816406 1085.988281 2004.820312 C 905.148438 1995.296875 1092.351562 1824.832031 811.921875 1783.925781 C 707.464844 1768.691406 562.753906 1791.390625 465.945312 1758.648438 C 427.054688 1745.492188 411.945312 1727.023438 388.464844 1714.390625 C 274.183594 1716.96875 160.261719 1705.921875 42.28125 1707.207031 C -182.609375 1709.640625 -59.179688 1625.738281 -67.253906 1532.679688 L -219.226562 1519.785156 C -242.625 1367.671875 -20.539062 1416.609375 86.988281 1407.640625 C 233.597656 1395.414062 567.316406 1221.066406 572.839844 1378.238281 C 575.429688 1452.023438 518.285156 1465.199219 449.210938 1467.746094 C 370.683594 1470.640625 333.476562 1484.734375 263.230469 1492.921875 C 205.617188 1499.632812 114.960938 1469.03125 73.8125 1510.566406 C 125.589844 1603.980469 348.988281 1478.472656 486.515625 1552.933594 C 528.707031 1575.789062 518.578125 1565.484375 510.957031 1586.949219 C 644.878906 1561.882812 722.558594 1572.480469 858.820312 1567.875 C 831.820312 1401.085938 804.550781 1276.976562 563.722656 1254.496094 C 497.289062 1248.304688 433.484375 1255.414062 414.546875 1199.839844 C 353.59375 1020.976562 761.074219 1026.25 960.046875 1168.859375 C 1087.460938 1132.410156 1314.121094 1160.976562 1275.648438 1055.921875 C 1248.710938 982.359375 1126.210938 1045.609375 1014.351562 1043.707031 C 802.464844 1040.105469 1040.308594 879.496094 1129.03125 908.21875 C 1137.941406 853.101562 1170.550781 842.296875 1223.78125 826.800781 C 1270.769531 813.125 1318.671875 807.183594 1356.808594 783.023438 C 1445.269531 726.988281 1409.25 676.703125 1570.601562 652.609375 C 2184.191406 560.980469 2145.589844 764.105469 2048.171875 775.609375 L 1854.539062 766.789062 C 1811.089844 766.996094 1765.019531 769.554688 1722.949219 777.824219 C 1670.140625 788.203125 1656.289062 792.703125 1650.449219 842.902344 C 1727.96875 874.851562 1826.390625 843.089844 1878.941406 883.660156 C 1882.351562 925.328125 1867.640625 927.722656 1841.230469 940.585938 C 1815.050781 953.34375 1797.738281 960.453125 1773.609375 969.117188 C 1876.378906 1044.417969 2007.808594 786.113281 2365.351562 946.566406 C 2454.300781 929.652344 2555.988281 881.78125 2652.171875 934.101562 C 2760.71875 993.144531 2602.988281 1081.867188 2562.910156 1113.890625 C 2325.691406 1303.453125 2785.480469 1269.53125 2804.710938 1419.78125 C 2925.25 1386.738281 2951.730469 1376.003906 3089.789062 1387.292969 C 3030.398438 1354.300781 2960.949219 1404.089844 2871.890625 1341.445312 C 2822.269531 1306.542969 2795.820312 1247.238281 2784.269531 1173.445312 C 2773.230469 1102.824219 2782.21875 994.867188 2758.679688 933.691406 C 2733.890625 869.253906 2657.101562 818.480469 2635.019531 790.707031 C 2581.5 810.324219 2498.328125 815.117188 2468.949219 770.609375 C 2463.648438 721.777344 2486.210938 712.089844 2475.46875 647.910156 C 2369.800781 581.589844 2178.660156 660.65625 2139.929688 527.71875 C 2056.621094 577.078125 1837.78125 567.820312 1802.578125 485.148438 C 1797.121094 398.179688 2040.949219 407.679688 2142.5 384.160156 C 2221.660156 365.808594 2259.289062 360.421875 2338.800781 381.058594 L 2482.199219 398.160156 C 2564.46875 388.390625 2531.890625 285.121094 2455.210938 271.351562 C 2390.578125 259.738281 2363.898438 280.578125 2287.898438 257.78125 C 2227.671875 308.320312 1842.210938 119.96875 2402.839844 52.789062 C 2466.289062 45.191406 2561.558594 56.691406 2601.761719 21.75 C 2594.429688 -40.441406 2482.820312 -72.78125 2416.898438 -85.269531 C 2286.851562 -109.921875 2273.230469 -94.441406 2163.050781 -66.179688 "/>
</g>
<g clip-path="url(#clip-1)">
<path fill-rule="evenodd" fill="rgb(25.488281%, 29.026794%, 30.979919%)" fill-opacity="1" d="M 972.324219 -908.019531 C 847.597656 -889.378906 667.316406 -793.339844 648.910156 -705.21875 C 604.496094 -707.410156 437.496094 -710.789062 410.078125 -696.101562 C 509.023438 -670.359375 641.757812 -738.039062 730.628906 -676.71875 C 722.257812 -621 713.527344 -641.789062 675.835938 -621.828125 C 711.964844 -615.410156 731.894531 -600.949219 764.21875 -581.628906 C 795.75 -562.800781 816.820312 -555.550781 807.046875 -520.648438 C 857.859375 -558.691406 1095.140625 -596.691406 1160.550781 -561.828125 C 1176.898438 -553.109375 1165.558594 -561.609375 1175.96875 -549.109375 C 1162.519531 -529.710938 1142.730469 -521.460938 1121.871094 -513.140625 C 1065.648438 -490.738281 998.058594 -456.398438 983.367188 -385.699219 C 1064.890625 -391.949219 1166.550781 -394.988281 1199.949219 -328.109375 C 1083.371094 -237.28125 705.121094 -77.75 562.316406 -141.578125 C 547.4375 -148.21875 553.023438 -145.738281 543.96875 -153.679688 C 350.410156 -65.71875 285.195312 -189.519531 214.292969 -243.621094 C 69.25 -354.269531 -129.855469 -225.28125 -231.632812 -148.289062 L -231.632812 38.308594 C -85.742188 56.851562 27.695312 56.511719 174.984375 51.789062 C 242.984375 49.621094 305.160156 73 280.582031 147.929688 C 256.683594 220.75 215.910156 213.46875 234.609375 316.039062 C 370.007812 324.328125 414.726562 366.441406 661.449219 353.230469 C 754.738281 348.238281 914.671875 316.039062 978.964844 334.691406 C 1019.621094 346.46875 1031.191406 366.828125 1059.578125 378.660156 C 1103.589844 358.210938 1213.769531 341.621094 1221.851562 279.398438 C 1224.359375 260.050781 1210.851562 241.179688 1205.109375 231.878906 L 1191.75 211.179688 C 1137.621094 233.871094 875.882812 311.589844 914.324219 163.519531 C 924.253906 125.269531 952.777344 104.050781 975.132812 83.378906 C 1118.71875 -49.378906 1344.328125 42.320312 1429.378906 -25 C 1422.75 -102.929688 1294.609375 -97.398438 1236.140625 -89.789062 C 975.675781 -55.910156 1015.261719 -209.820312 1235.941406 -240.878906 C 1328.578125 -253.910156 1427.761719 -242.800781 1521.058594 -246.371094 C 1480.46875 -271.570312 1426.480469 -274.101562 1404.789062 -311.839844 C 1378.5 -357.558594 1402.269531 -408.171875 1440.511719 -432.898438 C 1605.289062 -539.449219 1863.460938 -530.929688 1820.101562 -760.738281 C 1815.320312 -786.101562 1806.960938 -805.460938 1792.449219 -823.210938 C 1750.679688 -874.320312 1692.609375 -898.339844 1627.25 -915.519531 C 1597.859375 -791.078125 1409.871094 -822.570312 1328.820312 -829.558594 C 1252.46875 -836.160156 1246.160156 -860.378906 1205.910156 -899.390625 C 1165.621094 -938.449219 1109.910156 -940.988281 1111.011719 -862.988281 C 1154.5 -833.171875 1245.78125 -830.679688 1209.25 -769.269531 C 1154.898438 -747.980469 1086.109375 -772.691406 1053.121094 -799.5 C 1016.878906 -828.980469 1001.179688 -866.140625 972.324219 -908.019531 "/>
</g>
<g clip-path="url(#clip-2)">
<path fill-rule="evenodd" fill="rgb(25.488281%, 29.026794%, 30.979919%)" fill-opacity="1" d="M 2365.351562 946.566406 C 2387.960938 964.953125 2403.289062 967.886719 2410.789062 1006.695312 C 2349.910156 1148.386719 2128.421875 1013.085938 2002.46875 1048.324219 C 1877.191406 1083.371094 1903.871094 1171.503906 1613.179688 1186.882812 C 1644.371094 1252.105469 1536.800781 1286.601562 1477.058594 1300.875 C 1391.75 1321.253906 1312.828125 1307.179688 1226.011719 1302.566406 C 1105.871094 1296.175781 915.558594 1359.414062 907.664062 1244.996094 C 903.90625 1190.472656 928.273438 1190.390625 960.046875 1168.859375 C 761.074219 1026.25 353.59375 1020.976562 414.546875 1199.839844 C 433.484375 1255.414062 497.289062 1248.304688 563.722656 1254.496094 C 804.550781 1276.976562 831.820312 1401.085938 858.820312 1567.875 C 971.050781 1541.742188 1218.960938 1457.820312 1280.71875 1572.449219 C 1257.570312 1601.285156 1240.089844 1601.390625 1196.5 1612.488281 C 1150.949219 1624.078125 1123.589844 1625.90625 1105.511719 1651.695312 C 1114.898438 1681.753906 1140.308594 1693.289062 1194.421875 1711.425781 C 1328.78125 1756.464844 1477.539062 1657.800781 1594.191406 1680.058594 C 1600.421875 1673.878906 1602.160156 1671.855469 1610.148438 1665.191406 C 1612.238281 1663.460938 1618.648438 1658.550781 1620.828125 1656.921875 C 1734.410156 1571.945312 1740.820312 1481.058594 1913.210938 1419.417969 C 1971.050781 1365.605469 2067.421875 1348.785156 2172.488281 1345.257812 C 2307.070312 1340.734375 2361.320312 1346.96875 2410.511719 1450.039062 C 2532.449219 1705.515625 2638.039062 1529.152344 2751.820312 1453.089844 C 2765.261719 1444.121094 2788.390625 1431.675781 2804.710938 1419.78125 C 2785.480469 1269.53125 2325.691406 1303.453125 2562.910156 1113.890625 C 2602.988281 1081.867188 2760.71875 993.144531 2652.171875 934.101562 C 2555.988281 881.78125 2454.300781 929.652344 2365.351562 946.566406 "/>
</g>
<g clip-path="url(#clip-3)">
<path fill-rule="evenodd" fill="rgb(78.514099%, 80.859375%, 86.326599%)" fill-opacity="1" d="M -114.609375 344.140625 L -116.144531 359.808594 C -65.507812 398.441406 -41.515625 393.589844 39.902344 400.75 C 94.203125 405.53125 158.339844 412.441406 172.09375 457.121094 C 114.511719 514.609375 -41.078125 487.691406 -123.882812 512.480469 C -216.671875 540.160156 -141.800781 602.78125 -81.304688 617.535156 C -9.316406 635.089844 55.324219 632.570312 129.242188 623.894531 C 224.878906 612.683594 470.71875 584.441406 502.550781 670.785156 C 466.007812 747.839844 252.800781 763.949219 175.277344 766.945312 C 40.445312 772.144531 -69.820312 765.773438 -177.820312 834.882812 C -162.441406 936.835938 27.90625 932.128906 130.976562 934.445312 C 159.554688 875.851562 178.230469 867.238281 251.816406 854.40625 C 312.644531 843.808594 371.730469 840.40625 432.996094 846.042969 C 609.945312 862.34375 635.566406 843.546875 799.558594 819.984375 C 920.183594 719.847656 1335.351562 841.503906 1358.148438 696.355469 C 1267.28125 608.046875 890.332031 702.324219 756.523438 637.90625 C 699.160156 610.300781 663.046875 485.371094 864.542969 490.148438 C 914.910156 491.351562 970.589844 491.429688 1017.210938 478.71875 C 1085.738281 460.03125 1080.691406 436.75 1059.578125 378.660156 C 1031.191406 366.828125 1019.621094 346.46875 978.964844 334.691406 C 914.671875 316.039062 754.738281 348.238281 661.449219 353.230469 C 414.726562 366.441406 370.007812 324.328125 234.609375 316.039062 C 165.679688 288.96875 115.898438 299.75 42.386719 301.160156 C -17.230469 302.308594 -103.472656 289.058594 -114.609375 344.140625 "/>
</g>
<g clip-path="url(#clip-4)">
<path fill-rule="evenodd" fill="rgb(25.488281%, 29.026794%, 30.979919%)" fill-opacity="1" d="M 2992.210938 1135.441406 C 2926.558594 1128.121094 2828.980469 1110.226562 2806.609375 1061.980469 C 2772.511719 988.433594 2845.648438 909.710938 2900.671875 894.769531 C 3017.03125 863.164062 3291.171875 844.320312 3337.28125 954.960938 C 3431.699219 961.902344 3438.148438 1008.167969 3375.511719 1051.703125 C 3311.480469 1096.203125 3298.261719 1067.480469 3276.460938 1155.757812 C 3260.191406 1221.679688 3196.808594 1215.164062 3136.011719 1201.40625 L 3009.320312 1150.003906 C 2997.300781 1141.664062 3000.191406 1143.742188 2992.210938 1135.441406 Z M 2635.019531 790.707031 C 2657.101562 818.480469 2733.890625 869.253906 2758.679688 933.691406 C 2782.21875 994.867188 2773.230469 1102.824219 2784.269531 1173.445312 C 2795.820312 1247.238281 2822.269531 1306.542969 2871.890625 1341.445312 C 2960.949219 1404.089844 3030.398438 1354.300781 3089.789062 1387.292969 L 3116.179688 1388.515625 C 3176.550781 1395.570312 3243.679688 1382.070312 3299.949219 1364.664062 C 3358.5 1346.5625 3399.539062 1315.15625 3445.730469 1297.941406 L 3445.730469 487.121094 L 3361.078125 488.101562 L 2818.601562 460.058594 C 2788.078125 462.398438 2811.890625 455.5 2791.929688 466.441406 C 2837.011719 491.871094 2815.050781 521.378906 2786.890625 551.109375 C 2727.488281 613.851562 2736.648438 597.558594 2738.539062 638.4375 C 2798.96875 692.574219 2849.03125 670.710938 2939.128906 658.933594 C 3014.878906 649.035156 3094.070312 657.785156 3102.089844 732.667969 C 3048.25 807.933594 2743.769531 792.492188 2635.019531 790.707031 "/>
</g>
<g clip-path="url(#clip-5)">
<path fill-rule="evenodd" fill="rgb(78.514099%, 80.859375%, 86.326599%)" fill-opacity="1" d="M 1913.210938 1419.417969 C 1904.660156 1484.609375 1909.03125 1493.160156 1972.039062 1508.269531 C 2053.320312 1527.75 2173.359375 1520.191406 2219.488281 1560.984375 C 2244.148438 1582.792969 2269.410156 1620.882812 2261.53125 1669.683594 C 2185.390625 1806.96875 1800.910156 1753.878906 1776.691406 1899.515625 C 1805.488281 1991.351562 1947.808594 1974.0625 2042.789062 1955.152344 C 2380.589844 1887.914062 2320.910156 2096.480469 2459.929688 2213.425781 C 2522.511719 2266.066406 2685.429688 2252.789062 2721.53125 2191.230469 C 2714.558594 2113.59375 2607.261719 2135.246094 2569.078125 2069.019531 C 2271.320312 2031.371094 2526.761719 1912.261719 2334.429688 1870.96875 C 2268.550781 1856.820312 2206.96875 1856.53125 2166.261719 1819.902344 C 2206.878906 1673.890625 2583.46875 1839.25 2764.28125 1704.347656 C 2810.730469 1669.683594 2802.859375 1623.535156 2877.738281 1576.625 C 2903.121094 1519.898438 3000.429688 1514.949219 3060.980469 1497.128906 C 3097.949219 1486.25 3131.921875 1471.445312 3147.738281 1449.832031 C 3179.019531 1407.085938 3137.648438 1402.910156 3116.179688 1388.515625 L 3089.789062 1387.292969 C 2951.730469 1376.003906 2925.25 1386.738281 2804.710938 1419.78125 C 2788.390625 1431.675781 2765.261719 1444.121094 2751.820312 1453.089844 C 2638.039062 1529.152344 2532.449219 1705.515625 2410.511719 1450.039062 C 2361.320312 1346.96875 2307.070312 1340.734375 2172.488281 1345.257812 C 2067.421875 1348.785156 1971.050781 1365.605469 1913.210938 1419.417969 "/>
</g>
<g clip-path="url(#clip-6)">
<path fill-rule="evenodd" fill="rgb(9.790039%, 11.767578%, 12.939453%)" fill-opacity="1" d="M 1521.058594 -246.371094 C 1427.761719 -242.800781 1328.578125 -253.910156 1235.941406 -240.878906 C 1015.261719 -209.820312 975.675781 -55.910156 1236.140625 -89.789062 C 1294.609375 -97.398438 1422.75 -102.929688 1429.378906 -25 C 1344.328125 42.320312 1118.71875 -49.378906 975.132812 83.378906 C 952.777344 104.050781 924.253906 125.269531 914.324219 163.519531 C 875.882812 311.589844 1137.621094 233.871094 1191.75 211.179688 C 1275.050781 231.101562 1320.820312 157.800781 1589.058594 211.371094 C 1658.808594 225.300781 1716.519531 219.808594 1777.21875 195.320312 C 1823.75 176.570312 1882.660156 132.140625 1888.800781 89.601562 C 1794.128906 65.960938 1736.609375 134.351562 1620.191406 101.25 C 1611.28125 63.101562 1610.671875 39.441406 1621.019531 2.738281 C 1808.640625 -60.5 2014.648438 26.589844 2163.050781 -66.179688 C 2200.738281 -195.378906 2047.960938 -83.71875 2011.898438 -213.191406 C 2028.570312 -247.570312 2044.441406 -245.609375 2058.878906 -275.5 C 2049.730469 -319.46875 1998.109375 -342.441406 1943 -340.921875 C 1863.890625 -338.761719 1785.589844 -278.289062 1677.800781 -256.980469 C 1623.679688 -246.289062 1571.199219 -253.820312 1521.058594 -246.371094 "/>
</g>
<path fill-rule="evenodd" fill="rgb(9.790039%, 11.767578%, 12.939453%)" fill-opacity="1" d="M 1129.03125 908.21875 C 1171.289062 1000.429688 1268.890625 876.511719 1368.359375 1051.109375 C 1437 1171.566406 1431.839844 1168.023438 1613.179688 1186.882812 C 1903.871094 1171.503906 1877.191406 1083.371094 2002.46875 1048.324219 C 2128.421875 1013.085938 2349.910156 1148.386719 2410.789062 1006.695312 C 2403.289062 967.886719 2387.960938 964.953125 2365.351562 946.566406 C 2007.808594 786.113281 1876.378906 1044.417969 1773.609375 969.117188 C 1797.738281 960.453125 1815.050781 953.34375 1841.230469 940.585938 C 1867.640625 927.722656 1882.351562 925.328125 1878.941406 883.660156 C 1826.390625 843.089844 1727.96875 874.851562 1650.449219 842.902344 C 1656.289062 792.703125 1670.140625 788.203125 1722.949219 777.824219 C 1765.019531 769.554688 1811.089844 766.996094 1854.539062 766.789062 L 2048.171875 775.609375 C 2145.589844 764.105469 2184.191406 560.980469 1570.601562 652.609375 C 1409.25 676.703125 1445.269531 726.988281 1356.808594 783.023438 C 1318.671875 807.183594 1270.769531 813.125 1223.78125 826.800781 C 1170.550781 842.296875 1137.941406 853.101562 1129.03125 908.21875 "/>
<g clip-path="url(#clip-7)">
<path fill-rule="evenodd" fill="rgb(78.514099%, 80.859375%, 86.326599%)" fill-opacity="1" d="M 2058.878906 -275.5 C 2044.441406 -245.609375 2028.570312 -247.570312 2011.898438 -213.191406 C 2047.960938 -83.71875 2200.738281 -195.378906 2163.050781 -66.179688 C 2273.230469 -94.441406 2286.851562 -109.921875 2416.898438 -85.269531 C 2482.820312 -72.78125 2594.429688 -40.441406 2601.761719 21.75 C 2561.558594 56.691406 2466.289062 45.191406 2402.839844 52.789062 C 1842.210938 119.96875 2227.671875 308.320312 2287.898438 257.78125 C 2278.488281 241.449219 2275.601562 242.429688 2271.628906 219.121094 C 2343.820312 151.578125 2476.21875 146.25 2578.421875 185.390625 C 2657.691406 123.128906 2740.808594 142.640625 2835.671875 141.570312 C 2983.789062 86.421875 2971.609375 174.148438 3060.070312 171.929688 C 3157.558594 162.640625 3131.339844 110.910156 3144.640625 20.738281 C 3213.941406 -25.238281 3200.101562 -6.46875 3283.761719 -29.539062 C 3336.019531 -35.039062 3370.109375 -56.519531 3360.96875 -102.460938 C 3312.511719 -84.730469 3234.121094 -75.511719 3201.140625 -108.28125 C 3209.261719 -142.808594 3213.289062 -129.78125 3245.328125 -153.710938 C 3201.039062 -198.878906 2998.71875 -153.871094 2933.769531 -142.328125 C 2812.160156 -120.71875 2741.171875 -106.480469 2616.449219 -134.878906 C 2436.308594 -175.890625 2246.71875 -309.5 2058.878906 -275.5 "/>
</g>
<g clip-path="url(#clip-8)">
<path fill-rule="evenodd" fill="rgb(9.790039%, 11.767578%, 12.939453%)" fill-opacity="1" d="M 858.820312 1567.875 C 722.558594 1572.480469 644.878906 1561.882812 510.957031 1586.949219 C 476.292969 1600.3125 436.296875 1602.863281 402.769531 1623.199219 C 355.328125 1651.996094 365.988281 1672.941406 388.464844 1714.390625 C 411.945312 1727.023438 427.054688 1745.492188 465.945312 1758.648438 C 562.753906 1791.390625 707.464844 1768.691406 811.921875 1783.925781 C 1092.351562 1824.832031 905.148438 1995.296875 1085.988281 2004.820312 C 1237.980469 2012.816406 1238.089844 1851.058594 1429.949219 1857.667969 C 1511.5 1860.488281 1561.238281 1865.738281 1637.351562 1832.933594 C 1673.390625 1817.398438 1813.671875 1765.320312 1746.191406 1717.199219 L 1687.839844 1694.929688 C 1654.179688 1685.460938 1630.769531 1681.042969 1594.191406 1680.058594 C 1477.539062 1657.800781 1328.78125 1756.464844 1194.421875 1711.425781 C 1140.308594 1693.289062 1114.898438 1681.753906 1105.511719 1651.695312 C 1123.589844 1625.90625 1150.949219 1624.078125 1196.5 1612.488281 C 1240.089844 1601.390625 1257.570312 1601.285156 1280.71875 1572.449219 C 1218.960938 1457.820312 971.050781 1541.742188 858.820312 1567.875 "/>
</g>
<g clip-path="url(#clip-9)">
<path fill-rule="evenodd" fill="rgb(9.790039%, 11.767578%, 12.939453%)" fill-opacity="1" d="M 2877.738281 1576.625 C 2802.859375 1623.535156 2810.730469 1669.683594 2764.28125 1704.347656 C 2583.46875 1839.25 2206.878906 1673.890625 2166.261719 1819.902344 C 2206.96875 1856.53125 2268.550781 1856.820312 2334.429688 1870.96875 C 2526.761719 1912.261719 2271.320312 2031.371094 2569.078125 2069.019531 C 2630.199219 2069.480469 2676.128906 2063.539062 2711.328125 2033.90625 C 2719.101562 1968.527344 2656.230469 2017.882812 2668.671875 1935.578125 C 2734.179688 1915.09375 2797.910156 1944.734375 2852.789062 1970.6875 C 2917.96875 2001.519531 2955.449219 2013.769531 3031.46875 2034.554688 C 3111.75 2037.164062 3196.859375 2044.914062 3208.871094 1982.957031 C 3140.75 1952.929688 3058.378906 1951.699219 2985.878906 1926.464844 C 2880.050781 1889.636719 2936.230469 1839.46875 2992.75 1830.335938 C 3086.140625 1800.933594 3323.578125 1893.824219 3362.269531 1784.605469 C 3306.839844 1714.597656 3226.75 1765.289062 3145.128906 1766.5 C 3009.148438 1768.515625 3027.660156 1667.898438 3098.960938 1673.742188 C 3118.488281 1657.675781 3218.601562 1668.054688 3259.441406 1637.265625 C 3265.050781 1488.105469 2948.421875 1559.941406 2877.738281 1576.625 "/>
</g>
<g clip-path="url(#clip-10)">
<path fill-rule="evenodd" fill="rgb(9.790039%, 11.767578%, 12.939453%)" fill-opacity="1" d="M 130.976562 934.445312 C 121.296875 1013.972656 8.589844 1008.679688 -64.882812 1022.796875 C -162.480469 1041.558594 -200.382812 1073.058594 -137.234375 1155.484375 C -46.890625 1158.953125 -18.878906 1114.570312 85.808594 1111.050781 L 142.511719 1117.722656 C 145.386719 1196.863281 93.464844 1161.769531 89.265625 1234.167969 C 196.324219 1299.308594 298.039062 1221.566406 335.195312 1149.222656 C 402.769531 1017.679688 372.398438 1011.621094 554.757812 993.707031 C 661.617188 983.214844 807.527344 1019.671875 908.96875 980.5 C 983.390625 951.757812 1008.871094 830.96875 799.558594 819.984375 C 635.566406 843.546875 609.945312 862.34375 432.996094 846.042969 C 371.730469 840.40625 312.644531 843.808594 251.816406 854.40625 C 178.230469 867.238281 159.554688 875.851562 130.976562 934.445312 "/>
</g>
<path fill-rule="evenodd" fill="rgb(9.790039%, 11.767578%, 12.939453%)" fill-opacity="1" d="M 2287.898438 257.78125 C 2363.898438 280.578125 2390.578125 259.738281 2455.210938 271.351562 C 2531.890625 285.121094 2564.46875 388.390625 2482.199219 398.160156 L 2338.800781 381.058594 C 2259.289062 360.421875 2221.660156 365.808594 2142.5 384.160156 C 2040.949219 407.679688 1797.121094 398.179688 1802.578125 485.148438 C 1837.78125 567.820312 2056.621094 577.078125 2139.929688 527.71875 C 2196.980469 517.328125 2250.21875 488.988281 2313.539062 494.621094 C 2415.859375 503.699219 2462.191406 613.851562 2622.660156 537.148438 C 2680.371094 509.570312 2706.890625 477.199219 2748.210938 450.261719 C 2763.078125 420.929688 2788.160156 405.261719 2796.019531 356.949219 C 2802.78125 315.421875 2784.199219 291.449219 2755.511719 274.101562 C 2685.589844 231.800781 2644.460938 247.710938 2578.421875 185.390625 C 2476.21875 146.25 2343.820312 151.578125 2271.628906 219.121094 C 2275.601562 242.429688 2278.488281 241.449219 2287.898438 257.78125 "/>
<g clip-path="url(#clip-11)">
<path fill-rule="evenodd" fill="rgb(25.488281%, 29.026794%, 30.979919%)" fill-opacity="1" d="M -231.632812 1293.984375 C -181.578125 1268.644531 -121.855469 1226.003906 -75.84375 1197.40625 C -39.8125 1175.011719 72.402344 1123.359375 85.808594 1111.050781 C -18.878906 1114.570312 -46.890625 1158.953125 -137.234375 1155.484375 C -200.382812 1073.058594 -162.480469 1041.558594 -64.882812 1022.796875 C 8.589844 1008.679688 121.296875 1013.972656 130.976562 934.445312 C 27.90625 932.128906 -162.441406 936.835938 -177.820312 834.882812 C -69.820312 765.773438 40.445312 772.144531 175.277344 766.945312 C 252.800781 763.949219 466.007812 747.839844 502.550781 670.785156 C 470.71875 584.441406 224.878906 612.683594 129.242188 623.894531 C 55.324219 632.570312 -9.316406 635.089844 -81.304688 617.535156 C -141.800781 602.78125 -216.671875 540.160156 -123.882812 512.480469 C -125.960938 511.359375 -128.863281 510.371094 -130.492188 509.878906 L -231.632812 498.730469 L -231.632812 1293.984375 "/>
</g>
<g clip-path="url(#clip-12)">
<path fill-rule="evenodd" fill="rgb(78.514099%, 80.859375%, 86.326599%)" fill-opacity="1" d="M 388.464844 1714.390625 C 365.988281 1672.941406 355.328125 1651.996094 402.769531 1623.199219 C 436.296875 1602.863281 476.292969 1600.3125 510.957031 1586.949219 C 518.578125 1565.484375 528.707031 1575.789062 486.515625 1552.933594 C 348.988281 1478.472656 125.589844 1603.980469 73.8125 1510.566406 C 114.960938 1469.03125 205.617188 1499.632812 263.230469 1492.921875 C 333.476562 1484.734375 370.683594 1470.640625 449.210938 1467.746094 C 518.285156 1465.199219 575.429688 1452.023438 572.839844 1378.238281 C 567.316406 1221.066406 233.597656 1395.414062 86.988281 1407.640625 C -20.539062 1416.609375 -242.625 1367.671875 -219.226562 1519.785156 L -67.253906 1532.679688 C -59.179688 1625.738281 -182.609375 1709.640625 42.28125 1707.207031 C 160.261719 1705.921875 274.183594 1716.96875 388.464844 1714.390625 "/>
</g>
<path fill-rule="evenodd" fill="rgb(78.514099%, 80.859375%, 86.326599%)" fill-opacity="1" d="M 960.046875 1168.859375 C 928.273438 1190.390625 903.90625 1190.472656 907.664062 1244.996094 C 915.558594 1359.414062 1105.871094 1296.175781 1226.011719 1302.566406 C 1312.828125 1307.179688 1391.75 1321.253906 1477.058594 1300.875 C 1536.800781 1286.601562 1644.371094 1252.105469 1613.179688 1186.882812 C 1431.839844 1168.023438 1437 1171.566406 1368.359375 1051.109375 C 1268.890625 876.511719 1171.289062 1000.429688 1129.03125 908.21875 C 1040.308594 879.496094 802.464844 1040.105469 1014.351562 1043.707031 C 1126.210938 1045.609375 1248.710938 982.359375 1275.648438 1055.921875 C 1314.121094 1160.976562 1087.460938 1132.410156 960.046875 1168.859375 "/>
<path fill-rule="evenodd" fill="rgb(78.514099%, 80.859375%, 86.326599%)" fill-opacity="1" d="M 2139.929688 527.71875 C 2178.660156 660.65625 2369.800781 581.589844 2475.46875 647.910156 C 2486.210938 712.089844 2463.648438 721.777344 2468.949219 770.609375 C 2498.328125 815.117188 2581.5 810.324219 2635.019531 790.707031 C 2743.769531 792.492188 3048.25 807.933594 3102.089844 732.667969 C 3094.070312 657.785156 3014.878906 649.035156 2939.128906 658.933594 C 2849.03125 670.710938 2798.96875 692.574219 2738.539062 638.4375 C 2736.648438 597.558594 2727.488281 613.851562 2786.890625 551.109375 C 2815.050781 521.378906 2837.011719 491.871094 2791.929688 466.441406 L 2748.210938 450.261719 C 2706.890625 477.199219 2680.371094 509.570312 2622.660156 537.148438 C 2462.191406 613.851562 2415.859375 503.699219 2313.539062 494.621094 C 2250.21875 488.988281 2196.980469 517.328125 2139.929688 527.71875 "/>
<g clip-path="url(#clip-13)">
<path fill-rule="evenodd" fill="rgb(54.492188%, 59.179688%, 59.179688%)" fill-opacity="1" d="M -231.632812 194.378906 C -196.414062 209.121094 -222.632812 194.898438 -196.6875 220.339844 C -174.65625 241.929688 -178.632812 236.921875 -163.933594 258.328125 C -145.945312 284.539062 -135.074219 319.960938 -114.609375 344.140625 C -103.472656 289.058594 -17.230469 302.308594 42.386719 301.160156 C 115.898438 299.75 165.679688 288.96875 234.609375 316.039062 C 215.910156 213.46875 256.683594 220.75 280.582031 147.929688 C 305.160156 73 242.984375 49.621094 174.984375 51.789062 C 27.695312 56.511719 -85.742188 56.851562 -231.632812 38.308594 L -231.632812 194.378906 "/>
</g>
<g clip-path="url(#clip-14)">
<path fill-rule="evenodd" fill="rgb(54.492188%, 59.179688%, 59.179688%)" fill-opacity="1" d="M 3116.179688 1388.515625 C 3137.648438 1402.910156 3179.019531 1407.085938 3147.738281 1449.832031 C 3131.921875 1471.445312 3097.949219 1486.25 3060.980469 1497.128906 C 3000.429688 1514.949219 2903.121094 1519.898438 2877.738281 1576.625 C 2948.421875 1559.941406 3265.050781 1488.105469 3259.441406 1637.265625 C 3218.601562 1668.054688 3118.488281 1657.675781 3098.960938 1673.742188 C 3136.441406 1681.917969 3142.378906 1673.148438 3189.101562 1687.066406 C 3219.328125 1696.078125 3248.488281 1704.554688 3277.839844 1713.949219 C 3330.71875 1730.875 3393.789062 1763.660156 3445.730469 1772.597656 L 3445.730469 1297.941406 C 3399.539062 1315.15625 3358.5 1346.5625 3299.949219 1364.664062 C 3243.679688 1382.070312 3176.550781 1395.570312 3116.179688 1388.515625 "/>
</g>
<g clip-path="url(#clip-15)">
<path fill-rule="evenodd" fill="rgb(9.790039%, 11.767578%, 12.939453%)" fill-opacity="1" d="M 2835.671875 141.570312 C 2813.839844 156.699219 2810.308594 159.28125 2808.441406 197.328125 C 2861.980469 223.679688 2925.28125 215.019531 2963.839844 268.570312 C 2998.691406 316.949219 2990.101562 389.660156 3063.628906 385.441406 C 3130.269531 381.628906 3175.378906 338.941406 3246.121094 384.359375 C 3289.859375 412.460938 3291.628906 435.601562 3361.078125 488.101562 L 3445.730469 487.121094 L 3445.730469 189.980469 C 3331.109375 165.550781 3386.460938 306.160156 3294 315.539062 C 3240.609375 320.949219 3230.898438 283.78125 3225.210938 237.429688 C 3199.160156 25.46875 3130.46875 230.261719 3060.070312 171.929688 C 2971.609375 174.148438 2983.789062 86.421875 2835.671875 141.570312 "/>
</g>
<g clip-path="url(#clip-16)">
<path fill-rule="evenodd" fill="rgb(54.492188%, 59.179688%, 59.179688%)" fill-opacity="1" d="M 2578.421875 185.390625 C 2644.460938 247.710938 2685.589844 231.800781 2755.511719 274.101562 C 2784.199219 291.449219 2802.78125 315.421875 2796.019531 356.949219 C 2788.160156 405.261719 2763.078125 420.929688 2748.210938 450.261719 L 2791.929688 466.441406 C 2811.890625 455.5 2788.078125 462.398438 2818.601562 460.058594 L 3361.078125 488.101562 C 3291.628906 435.601562 3289.859375 412.460938 3246.121094 384.359375 C 3175.378906 338.941406 3130.269531 381.628906 3063.628906 385.441406 C 2990.101562 389.660156 2998.691406 316.949219 2963.839844 268.570312 C 2925.28125 215.019531 2861.980469 223.679688 2808.441406 197.328125 C 2810.308594 159.28125 2813.839844 156.699219 2835.671875 141.570312 C 2740.808594 142.640625 2657.691406 123.128906 2578.421875 185.390625 "/>
</g>
<g clip-path="url(#clip-17)">
<path fill-rule="evenodd" fill="rgb(9.790039%, 11.767578%, 12.939453%)" fill-opacity="1" d="M 2992.210938 1135.441406 C 3028.691406 1143.6875 3075.171875 1153.980469 3105.121094 1130.460938 C 3095.191406 1080.300781 3040.511719 1082.691406 3030.929688 1022.679688 C 3150.011719 968.585938 3282.449219 1119.203125 3337.28125 954.960938 C 3291.171875 844.320312 3017.03125 863.164062 2900.671875 894.769531 C 2845.648438 909.710938 2772.511719 988.433594 2806.609375 1061.980469 C 2828.980469 1110.226562 2926.558594 1128.121094 2992.210938 1135.441406 "/>
</g>
<g clip-path="url(#clip-18)">
<path fill-rule="evenodd" fill="rgb(54.492188%, 59.179688%, 59.179688%)" fill-opacity="1" d="M 3060.070312 171.929688 C 3130.46875 230.261719 3199.160156 25.46875 3225.210938 237.429688 C 3230.898438 283.78125 3240.609375 320.949219 3294 315.539062 C 3386.460938 306.160156 3331.109375 165.550781 3445.730469 189.980469 L 3445.730469 36.128906 C 3409.890625 29.660156 3326.171875 9.308594 3298.558594 -13.800781 C 3285.300781 -24.910156 3294.058594 -17.171875 3283.761719 -29.539062 C 3200.101562 -6.46875 3213.941406 -25.238281 3144.640625 20.738281 C 3131.339844 110.910156 3157.558594 162.640625 3060.070312 171.929688 "/>
</g>
<g clip-path="url(#clip-19)">
<path fill-rule="evenodd" fill="rgb(78.514099%, 80.859375%, 86.326599%)" fill-opacity="1" d="M 2992.210938 1135.441406 C 3000.191406 1143.742188 2997.300781 1141.664062 3009.320312 1150.003906 L 3136.011719 1201.40625 C 3196.808594 1215.164062 3260.191406 1221.679688 3276.460938 1155.757812 C 3298.261719 1067.480469 3311.480469 1096.203125 3375.511719 1051.703125 C 3438.148438 1008.167969 3431.699219 961.902344 3337.28125 954.960938 C 3282.449219 1119.203125 3150.011719 968.585938 3030.929688 1022.679688 C 3040.511719 1082.691406 3095.191406 1080.300781 3105.121094 1130.460938 C 3075.171875 1153.980469 3028.691406 1143.6875 2992.210938 1135.441406 "/>
</g>
<g clip-path="url(#clip-20)">
<path fill-rule="evenodd" fill="rgb(54.492188%, 59.179688%, 59.179688%)" fill-opacity="1" d="M -231.632812 495.78125 L -231.632812 498.730469 L -130.492188 509.878906 C -128.863281 510.371094 -125.960938 511.359375 -123.882812 512.480469 C -41.078125 487.691406 114.511719 514.609375 172.09375 457.121094 C 158.339844 412.441406 94.203125 405.53125 39.902344 400.75 C -41.515625 393.589844 -65.507812 398.441406 -116.144531 359.808594 C -110.988281 454.761719 -149.035156 479.710938 -231.632812 495.78125 "/>
</g>
</svg>
